<svg fill="#fff" version="1.1" viewBox="0 0 611.72 56.827" xmlns="http://www.w3.org/2000/svg"><path d="m-1.2589e-7 4.2176h14.484q3.8846 0 6.8814 1.6094 3.0522 1.6094 4.7171 4.4951 1.6648 2.8302 1.6648 6.4374 0 3.8292-2.4418 6.8259-2.3863 2.9412-6.049 4.2731l-0.0555 0.38846 10.655 15.261v0.44396h-8.6017l-10.267-14.928h-3.4962v14.928h-7.4918zm14.429 17.925q2.5528 0 4.1621-1.5539 1.6094-1.5539 1.6094-3.9401 0-2.2753-1.5539-3.8846-1.4984-1.6094-4.1066-1.6094h-7.0479v10.988z"/><path d="m38.292 12.542q-1.9423 0-3.3297-1.3874-1.3874-1.3874-1.3874-3.3297t1.3874-3.2742q1.3874-1.3874 3.3297-1.3874t3.2742 1.3874q1.3874 1.3319 1.3874 3.2742t-1.3874 3.3297q-1.3319 1.3874-3.2742 1.3874zm-3.6627 3.1077h7.2698v28.302h-7.2698z"/><path d="m49.28 15.65h6.8259v3.4407h0.44396q1.1654-1.8313 3.3852-3.0522 2.2198-1.2764 5.1055-1.2764 3.8292 0 6.9369 1.9423 3.1632 1.8868 4.9391 5.3275t1.7758 7.7693q0 4.3841-1.7758 7.8248-1.7758 3.3852-4.9391 5.3275-3.1077 1.8868-6.9369 1.8868-2.8857 0-5.161-1.2209-2.2198-1.2209-3.3297-3.0522h-0.44396l0.44396 3.9956v11.376h-7.2698zm14.484 22.475q2.0533 0 3.8292-1.0544t2.8302-2.9412 1.0544-4.3286-1.0544-4.3286-2.8302-2.8857q-1.7758-1.0544-3.8292-1.0544-1.9978 0-3.7737 1.0544-1.7758 0.99891-2.8302 2.8857t-1.0544 4.3286 1.0544 4.3286 2.8302 2.9412 3.7737 1.0544z"/><path d="m83.52 15.65h6.8259v3.4407h0.44396q1.1654-1.8313 3.3852-3.0522 2.2198-1.2764 5.1055-1.2764 3.8292 0 6.9369 1.9423 3.1632 1.8868 4.9391 5.3275t1.7758 7.7693q0 4.3841-1.7758 7.8248-1.7758 3.3852-4.9391 5.3275-3.1077 1.8868-6.9369 1.8868-2.8857 0-5.161-1.2209-2.2198-1.2209-3.3297-3.0522h-0.44396l0.44396 3.9956v11.376h-7.2698zm14.484 22.475q2.0533 0 3.8292-1.0544t2.8302-2.9412q1.0544-1.8868 1.0544-4.3286t-1.0544-4.3286q-1.0544-1.8868-2.8302-2.8857-1.7758-1.0544-3.8292-1.0544-1.9978 0-3.7737 1.0544-1.7758 0.99891-2.8302 2.8857t-1.0544 4.3286 1.0544 4.3286 2.8302 2.9412 3.7737 1.0544z"/><path d="m131.8 44.84q-4.2176 0-7.6028-1.9423-3.3852-1.9423-5.3275-5.3275-1.8868-3.4407-1.8868-7.7138 0-4.0511 1.8868-7.4918 1.8868-3.4962 5.2165-5.5495t7.4363-2.0533q4.3841 0 7.5473 1.8868 3.1632 1.8868 4.7726 5.161 1.6648 3.2742 1.6648 7.2698 0 1.2764-0.16648 2.4418h-21.255q0.55495 3.3852 2.6638 5.161 2.1643 1.7203 5.161 1.7203 2.4973 0 4.2731-1.0544 1.8313-1.1099 2.8857-2.9412l5.8825 2.8857q-4.3286 7.5473-13.152 7.5473zm6.7149-18.48q-0.11099-1.3319-0.99891-2.6083-0.83242-1.3319-2.3863-2.1643-1.4984-0.88792-3.5517-0.88792-2.6083 0-4.4951 1.5539-1.8313 1.4984-2.6638 4.1066z"/><path d="m163.54 44.84q-3.8292 0-6.9924-1.8868-3.1077-1.9423-4.9391-5.3275-1.7758-3.4407-1.7758-7.8248 0-4.3286 1.7758-7.7693 1.8313-3.4407 4.9391-5.3275 3.1632-1.9423 6.9924-1.9423 2.8857 0 5.1055 1.2764 2.2198 1.2209 3.3852 3.0522h0.44396l-0.44396-3.9956v-10.877h7.2144v39.734h-6.7704v-3.3852h-0.44396q-1.1099 1.8313-3.3852 3.0522-2.2198 1.2209-5.1055 1.2209zm1.2209-6.7149q2.0533 0 3.8292-1.0544t2.8302-2.9412q1.0544-1.8868 1.0544-4.3286t-1.0544-4.3286q-1.0544-1.8868-2.8302-2.8857-1.7758-1.0544-3.8292-1.0544-1.9978 0-3.7737 1.0544-1.7758 0.99891-2.8302 2.8857-1.0544 1.8868-1.0544 4.3286t1.0544 4.3286q1.0544 1.8868 2.8302 2.9412t3.7737 1.0544z"/><path d="m200.39-1.3428e-6h6.6594v50.611h-6.6594z"/><path d="m232.69 33.297h-6.3819l0.94342-5.6605h6.3264l0.83242-5.827h-6.4374l0.88792-5.6605h6.3819l1.5539-10.156h6.1044l-1.4984 10.156h6.2154l1.4984-10.156h6.1599l-1.5539 10.156h6.4374l-0.88792 5.6605h-6.3819l-0.83243 5.827h6.4929l-0.88792 5.6605h-6.4374l-1.6094 10.655h-6.1599l1.6094-10.655h-6.2154l-1.6094 10.655h-6.1044zm13.319-5.5495 0.88792-6.049h-6.4374l-0.88792 6.049z"/><path d="m266.49 4.2176h7.4918v17.037h0.44396l14.54-17.037h9.0457v0.44396l-14.373 16.427 15.872 22.42v0.44396h-9.1567l-11.876-16.926-4.4951 5.272v11.654h-7.4918z"/><path d="m315.54 44.84q-4.2176 0-7.6028-1.9423-3.3852-1.9423-5.3275-5.3275-1.8868-3.4407-1.8868-7.7138 0-4.0511 1.8868-7.4918 1.8868-3.4962 5.2165-5.5495t7.4363-2.0533q4.3841 0 7.5473 1.8868 3.1632 1.8868 4.7726 5.161 1.6648 3.2742 1.6648 7.2698 0 1.2764-0.16648 2.4418h-21.255q0.55495 3.3852 2.6638 5.161 2.1643 1.7203 5.161 1.7203 2.4973 0 4.2731-1.0544 1.8313-1.1099 2.8857-2.9412l5.8825 2.8857q-4.3286 7.5473-13.152 7.5473zm6.7149-18.48q-0.11099-1.3319-0.99891-2.6083-0.83242-1.3319-2.3863-2.1643-1.4984-0.88792-3.5517-0.88792-2.6083 0-4.4951 1.5539-1.8313 1.4984-2.6638 4.1066z"/><path d="m348.4 44.84q-4.2176 0-7.6028-1.9423-3.3852-1.9423-5.3275-5.3275-1.8868-3.4407-1.8868-7.7138 0-4.0511 1.8868-7.4918 1.8868-3.4962 5.2165-5.5495t7.4363-2.0533q4.3841 0 7.5473 1.8868 3.1632 1.8868 4.7726 5.161 1.6648 3.2742 1.6648 7.2698 0 1.2764-0.16649 2.4418h-21.255q0.55495 3.3852 2.6638 5.161 2.1643 1.7203 5.161 1.7203 2.4973 0 4.2731-1.0544 1.8313-1.1099 2.8857-2.9412l5.8825 2.8857q-4.3286 7.5473-13.152 7.5473zm6.7149-18.48q-0.11099-1.3319-0.99891-2.6083-0.83243-1.3319-2.3863-2.1643-1.4984-0.88792-3.5517-0.88792-2.6083 0-4.4951 1.5539-1.8313 1.4984-2.6638 4.1066z"/><path d="m367.49 15.65h6.8259v3.4407h0.44396q1.1654-1.8313 3.3852-3.0522 2.2198-1.2764 5.1055-1.2764 3.8292 0 6.9369 1.9423 3.1632 1.8868 4.9391 5.3275t1.7758 7.7693q0 4.3841-1.7758 7.8248-1.7758 3.3852-4.9391 5.3275-3.1077 1.8868-6.9369 1.8868-2.8857 0-5.161-1.2209-2.2198-1.2209-3.3297-3.0522h-0.44396l0.44396 3.9956v11.376h-7.2698zm14.484 22.475q2.0533 0 3.8292-1.0544t2.8302-2.9412q1.0544-1.8868 1.0544-4.3286t-1.0544-4.3286q-1.0544-1.8868-2.8302-2.8857-1.7758-1.0544-3.8292-1.0544-1.9978 0-3.7737 1.0544-1.7758 0.99891-2.8302 2.8857-1.0544 1.8868-1.0544 4.3286t1.0544 4.3286q1.0544 1.8868 2.8302 2.9412t3.7737 1.0544z"/><path d="m415.49 44.84q-5.2165 0-9.2122-2.9412t-5.605-8.3242l7.0479-2.7748q0.83242 3.1632 2.8302 5.05t4.9946 1.8868q2.4973 0 4.2731-1.2209 1.7758-1.2764 1.7758-3.4962t-1.7204-3.6072q-1.6648-1.4429-5.9935-3.0522l-2.4418-0.88792q-3.8292-1.3319-6.5484-4.0511-2.7192-2.7748-2.7192-6.9369 0-3.1077 1.6094-5.6605 1.6094-2.5528 4.5506-3.9956 2.9412-1.4984 6.6594-1.4984 5.383 0 8.4907 2.5528 3.1077 2.4973 4.2731 5.8825l-6.6039 2.7748q-0.61045-1.8313-2.1643-3.0522-1.4984-1.2764-3.8846-1.2764-2.4418 0-4.0511 1.1654-1.5539 1.1099-1.5539 2.9412 0 1.7758 1.4984 3.0522 1.4984 1.2209 4.9391 2.3863l2.4973 0.83242q5.161 1.7758 7.8803 4.7171 2.7748 2.8857 2.7748 7.6028 0 3.8846-1.9978 6.6039-1.9978 2.6638-5.161 3.9956-3.1077 1.3319-6.4374 1.3319z"/><path d="m448.46 44.84q-4.2176 0-7.6028-1.9423-3.3852-1.9423-5.3275-5.3275-1.8868-3.4407-1.8868-7.7138 0-4.0511 1.8868-7.4918 1.8868-3.4962 5.2165-5.5495t7.4363-2.0533q4.3841 0 7.5473 1.8868 3.1632 1.8868 4.7726 5.161 1.6648 3.2742 1.6648 7.2698 0 1.2764-0.16648 2.4418h-21.255q0.55495 3.3852 2.6638 5.161 2.1643 1.7203 5.161 1.7203 2.4973 0 4.2731-1.0544 1.8313-1.1099 2.8857-2.9412l5.8825 2.8857q-4.3286 7.5473-13.152 7.5473zm6.7149-18.48q-0.11099-1.3319-0.99891-2.6083-0.83242-1.3319-2.3863-2.1643-1.4984-0.88792-3.5517-0.88792-2.6083 0-4.4951 1.5539-1.8313 1.4984-2.6638 4.1066z"/><path d="m481.31 44.84q-4.2176 0-7.6028-1.9423-3.3852-1.9423-5.3275-5.3275-1.8868-3.4407-1.8868-7.7138 0-4.0511 1.8868-7.4918 1.8868-3.4962 5.2165-5.5495t7.4363-2.0533q4.3841 0 7.5473 1.8868 3.1632 1.8868 4.7726 5.161 1.6648 3.2742 1.6648 7.2698 0 1.2764-0.16648 2.4418h-21.255q0.55495 3.3852 2.6638 5.161 2.1643 1.7203 5.161 1.7203 2.4973 0 4.2731-1.0544 1.8313-1.1099 2.8857-2.9412l5.8825 2.8857q-4.3286 7.5473-13.152 7.5473zm6.7149-18.48q-0.11099-1.3319-0.99891-2.6083-0.83242-1.3319-2.3863-2.1643-1.4984-0.88792-3.5517-0.88792-2.6083 0-4.4951 1.5539-1.8313 1.4984-2.6638 4.1066z"/><path d="m513.05 44.84q-3.8292 0-6.9924-1.8868-3.1077-1.9423-4.939-5.3275-1.7758-3.4407-1.7758-7.8248 0-4.3286 1.7758-7.7693 1.8313-3.4407 4.939-5.3275 3.1632-1.9423 6.9924-1.9423 2.8857 0 5.1055 1.2764 2.2198 1.2209 3.3852 3.0522h0.44396l-0.44396-3.9956v-10.877h7.2144v39.734h-6.7704v-3.3852h-0.44396q-1.1099 1.8313-3.3852 3.0522-2.2198 1.2209-5.1055 1.2209zm1.2209-6.7149q2.0533 0 3.8292-1.0544t2.8302-2.9412q1.0544-1.8868 1.0544-4.3286t-1.0544-4.3286q-1.0544-1.8868-2.8302-2.8857-1.7758-1.0544-3.8292-1.0544-1.9978 0-3.7737 1.0544-1.7758 0.99891-2.8302 2.8857-1.0544 1.8868-1.0544 4.3286t1.0544 4.3286q1.0544 1.8868 2.8302 2.9412t3.7737 1.0544z"/><path d="m540.02 12.542q-1.9423 0-3.3297-1.3874-1.3874-1.3874-1.3874-3.3297t1.3874-3.2742q1.3874-1.3874 3.3297-1.3874 1.9423 0 3.2742 1.3874 1.3874 1.3319 1.3874 3.2742t-1.3874 3.3297q-1.3319 1.3874-3.2742 1.3874zm-3.6627 3.1077h7.2698v28.302h-7.2698z"/><path d="m551.23 15.65h6.8259v3.5517h0.44396q1.2764-2.0533 3.6072-3.2187 2.3308-1.2209 5.05-1.2209 5.1055 0 7.7693 3.1077t2.6638 8.4907v17.592h-7.2698v-16.704q0-2.7193-1.3874-4.2176-1.3874-1.4984-3.8846-1.4984-2.9412 0-4.7726 2.2753-1.7758 2.2753-1.7758 5.716v14.429h-7.2698z"/><path d="m597.24 56.827q-5.383 0-8.9347-2.4418-3.5517-2.3863-4.7726-5.7715l6.8259-2.7748q0.88792 2.1088 2.7192 3.3297 1.8313 1.2209 4.1621 1.2209 3.4407 0 5.4385-2.1088 2.0533-2.1088 2.0533-5.9935v-2.2198h-0.44396q-1.3319 1.8868-3.4962 2.8857-2.1643 0.99891-4.9391 0.99891-3.4962 0-6.5484-1.7758-2.9967-1.8313-4.8281-5.1055-1.8313-3.3297-1.8313-7.7138t1.8313-7.6583q1.8313-3.3297 4.8281-5.1055 3.0522-1.8313 6.5484-1.8313 2.7748 0 4.9391 0.99891 2.1643 0.99891 3.4962 2.8857h0.44396v-2.9967h6.9924v26.36q0 4.5506-1.7758 7.8803t-5.05 5.1055q-3.2742 1.8313-7.6583 1.8313zm0.11099-19.479q3.0522 0 5.2165-2.1088 2.1643-2.1643 2.1643-5.8825 0-3.8292-2.1643-5.8825-2.1088-2.1088-5.2165-2.1088t-5.272 2.1088q-2.1643 2.1088-2.1643 5.8825t2.1643 5.8825q2.1643 2.1088 5.272 2.1088z"/></svg>
