<svg xmlns="http://www.w3.org/2000/svg" version="1.1" height="176" width="760" viewBox="0 0 760 176" class="diagram" text-anchor="middle" font-family="monospace" font-size="13px">
<rect class="gray" x="748" y="104" width="8" height="16" fill="rgb(255,255,255)"/>
<rect class="gray" x="748" y="56" width="8" height="16" fill="rgb(255,255,255)"/>
<rect class="gray" x="740" y="120" width="8" height="16" fill="rgb(255,255,255)"/>
<rect class="gray" x="740" y="104" width="8" height="16" fill="rgb(255,255,255)"/>
<rect class="gray" x="740" y="88" width="8" height="16" fill="rgb(255,255,255)"/>
<rect class="gray" x="740" y="56" width="8" height="16" fill="rgb(255,255,255)"/>
<rect class="gray" x="732" y="120" width="8" height="16" fill="rgb(255,255,255)"/>
<rect class="gray" x="732" y="88" width="8" height="16" fill="rgb(255,255,255)"/>
<rect class="gray" x="732" y="56" width="8" height="16" fill="rgb(255,255,255)"/>
<rect class="gray" x="724" y="120" width="8" height="16" fill="rgb(255,255,255)"/>
<rect class="gray" x="724" y="88" width="8" height="16" fill="rgb(255,255,255)"/>
<rect class="gray" x="716" y="120" width="8" height="16" fill="rgb(255,255,255)"/>
<rect class="gray" x="716" y="88" width="8" height="16" fill="rgb(255,255,255)"/>
<rect class="gray" x="716" y="56" width="8" height="16" fill="rgb(255,255,255)"/>
<rect class="gray" x="708" y="120" width="8" height="16" fill="rgb(255,255,255)"/>
<rect class="gray" x="708" y="88" width="8" height="16" fill="rgb(255,255,255)"/>
<rect class="gray" x="708" y="72" width="8" height="16" fill="rgb(255,255,255)"/>
<rect class="gray" x="708" y="56" width="8" height="16" fill="rgb(255,255,255)"/>
<rect class="gray" x="700" y="120" width="8" height="16" fill="rgb(255,255,255)"/>
<rect class="gray" x="700" y="104" width="8" height="16" fill="rgb(255,255,255)"/>
<rect class="gray" x="700" y="72" width="8" height="16" fill="rgb(255,255,255)"/>
<rect class="gray" x="684" y="72" width="8" height="16" fill="rgb(255,255,255)"/>
<rect class="gray" x="684" y="56" width="8" height="16" fill="rgb(255,255,255)"/>
<rect class="gray" x="676" y="120" width="8" height="16" fill="rgb(255,255,255)"/>
<rect class="gray" x="676" y="72" width="8" height="16" fill="rgb(255,255,255)"/>
<rect class="gray" x="676" y="56" width="8" height="16" fill="rgb(255,255,255)"/>
<rect class="gray" x="668" y="120" width="8" height="16" fill="rgb(255,255,255)"/>
<rect class="gray" x="660" y="120" width="8" height="16" fill="rgb(255,255,255)"/>
<rect class="gray" x="660" y="56" width="8" height="16" fill="rgb(255,255,255)"/>
<rect class="gray" x="652" y="120" width="8" height="16" fill="rgb(255,255,255)"/>
<rect class="gray" x="652" y="56" width="8" height="16" fill="rgb(255,255,255)"/>
<rect class="gray" x="644" y="120" width="8" height="16" fill="rgb(255,255,255)"/>
<rect class="gray" x="644" y="104" width="8" height="16" fill="rgb(255,255,255)"/>
<rect class="gray" x="644" y="88" width="8" height="16" fill="rgb(255,255,255)"/>
<rect class="gray" x="644" y="72" width="8" height="16" fill="rgb(255,255,255)"/>
<rect class="gray" x="636" y="104" width="8" height="16" fill="rgb(255,255,255)"/>
<rect class="gray" x="636" y="88" width="8" height="16" fill="rgb(255,255,255)"/>
<rect class="gray" x="636" y="72" width="8" height="16" fill="rgb(255,255,255)"/>
<rect class="gray" x="628" y="104" width="8" height="16" fill="rgb(255,255,255)"/>
<rect class="gray" x="628" y="88" width="8" height="16" fill="rgb(255,255,255)"/>
<rect class="gray" x="628" y="72" width="8" height="16" fill="rgb(255,255,255)"/>
<rect class="gray" x="620" y="120" width="8" height="16" fill="rgb(255,255,255)"/>
<rect class="gray" x="620" y="56" width="8" height="16" fill="rgb(255,255,255)"/>
<rect class="gray" x="612" y="120" width="8" height="16" fill="rgb(255,255,255)"/>
<rect class="gray" x="612" y="56" width="8" height="16" fill="rgb(255,255,255)"/>
<rect class="gray" x="604" y="120" width="8" height="16" fill="rgb(255,255,255)"/>
<rect class="gray" x="596" y="120" width="8" height="16" fill="rgb(255,255,255)"/>
<rect class="gray" x="596" y="56" width="8" height="16" fill="rgb(255,255,255)"/>
<rect class="gray" x="588" y="120" width="8" height="16" fill="rgb(255,255,255)"/>
<rect class="gray" x="588" y="56" width="8" height="16" fill="rgb(255,255,255)"/>
<rect class="gray" x="580" y="104" width="8" height="16" fill="rgb(255,255,255)"/>
<rect class="gray" x="580" y="88" width="8" height="16" fill="rgb(255,255,255)"/>
<rect class="gray" x="580" y="72" width="8" height="16" fill="rgb(255,255,255)"/>
<rect class="gray" x="572" y="104" width="8" height="16" fill="rgb(255,255,255)"/>
<rect class="gray" x="572" y="88" width="8" height="16" fill="rgb(255,255,255)"/>
<rect class="gray" x="572" y="72" width="8" height="16" fill="rgb(255,255,255)"/>
<rect class="gray" x="564" y="88" width="8" height="16" fill="rgb(255,255,255)"/>
<rect class="gray" x="564" y="72" width="8" height="16" fill="rgb(255,255,255)"/>
<rect class="gray" x="564" y="56" width="8" height="16" fill="rgb(255,255,255)"/>
<rect class="gray" x="556" y="104" width="8" height="16" fill="rgb(255,255,255)"/>
<rect class="gray" x="556" y="88" width="8" height="16" fill="rgb(255,255,255)"/>
<rect class="gray" x="556" y="72" width="8" height="16" fill="rgb(255,255,255)"/>
<rect class="gray" x="556" y="56" width="8" height="16" fill="rgb(255,255,255)"/>
<rect class="gray" x="556" y="40" width="8" height="16" fill="rgb(255,255,255)"/>
<rect class="gray" x="548" y="104" width="8" height="16" fill="rgb(255,255,255)"/>
<rect class="gray" x="548" y="40" width="8" height="16" fill="rgb(255,255,255)"/>
<rect class="gray" x="540" y="120" width="8" height="16" fill="rgb(255,255,255)"/>
<rect class="gray" x="540" y="24" width="8" height="16" fill="rgb(255,255,255)"/>
<rect class="gray" x="532" y="120" width="8" height="16" fill="rgb(255,255,255)"/>
<rect class="gray" x="532" y="24" width="8" height="16" fill="rgb(255,255,255)"/>
<rect class="gray" x="524" y="120" width="8" height="16" fill="rgb(255,255,255)"/>
<rect class="gray" x="516" y="120" width="8" height="16" fill="rgb(255,255,255)"/>
<rect class="gray" x="508" y="120" width="8" height="16" fill="rgb(255,255,255)"/>
<rect class="gray" x="500" y="120" width="8" height="16" fill="rgb(255,255,255)"/>
<rect class="gray" x="500" y="104" width="8" height="16" fill="rgb(255,255,255)"/>
<rect class="gray" x="500" y="88" width="8" height="16" fill="rgb(255,255,255)"/>
<rect class="gray" x="500" y="72" width="8" height="16" fill="rgb(255,255,255)"/>
<rect class="gray" x="500" y="56" width="8" height="16" fill="rgb(255,255,255)"/>
<rect class="gray" x="500" y="40" width="8" height="16" fill="rgb(255,255,255)"/>
<rect class="gray" x="500" y="24" width="8" height="16" fill="rgb(255,255,255)"/>
<rect class="gray" x="492" y="120" width="8" height="16" fill="rgb(255,255,255)"/>
<rect class="gray" x="492" y="104" width="8" height="16" fill="rgb(255,255,255)"/>
<rect class="gray" x="492" y="88" width="8" height="16" fill="rgb(255,255,255)"/>
<rect class="gray" x="492" y="72" width="8" height="16" fill="rgb(255,255,255)"/>
<rect class="gray" x="492" y="56" width="8" height="16" fill="rgb(255,255,255)"/>
<rect class="gray" x="492" y="40" width="8" height="16" fill="rgb(255,255,255)"/>
<rect class="gray" x="492" y="24" width="8" height="16" fill="rgb(255,255,255)"/>
<rect class="gray" x="484" y="120" width="8" height="16" fill="rgb(255,255,255)"/>
<rect class="gray" x="484" y="24" width="8" height="16" fill="rgb(255,255,255)"/>
<rect class="gray" x="436" y="120" width="8" height="16" fill="rgb(255,255,255)"/>
<rect class="gray" x="428" y="120" width="8" height="16" fill="rgb(255,255,255)"/>
<rect class="gray" x="428" y="104" width="8" height="16" fill="rgb(255,255,255)"/>
<rect class="gray" x="428" y="88" width="8" height="16" fill="rgb(255,255,255)"/>
<rect class="gray" x="428" y="72" width="8" height="16" fill="rgb(255,255,255)"/>
<rect class="gray" x="428" y="56" width="8" height="16" fill="rgb(255,255,255)"/>
<rect class="gray" x="428" y="40" width="8" height="16" fill="rgb(255,255,255)"/>
<rect class="gray" x="428" y="24" width="8" height="16" fill="rgb(255,255,255)"/>
<rect class="gray" x="420" y="120" width="8" height="16" fill="rgb(255,255,255)"/>
<rect class="gray" x="420" y="104" width="8" height="16" fill="rgb(255,255,255)"/>
<rect class="gray" x="420" y="88" width="8" height="16" fill="rgb(255,255,255)"/>
<rect class="gray" x="420" y="72" width="8" height="16" fill="rgb(255,255,255)"/>
<rect class="gray" x="420" y="56" width="8" height="16" fill="rgb(255,255,255)"/>
<rect class="gray" x="420" y="40" width="8" height="16" fill="rgb(255,255,255)"/>
<rect class="gray" x="420" y="24" width="8" height="16" fill="rgb(255,255,255)"/>
<rect class="gray" x="412" y="56" width="8" height="16" fill="rgb(255,255,255)"/>
<rect class="gray" x="412" y="24" width="8" height="16" fill="rgb(255,255,255)"/>
<rect class="gray" x="404" y="120" width="8" height="16" fill="rgb(255,255,255)"/>
<rect class="gray" x="396" y="120" width="8" height="16" fill="rgb(255,255,255)"/>
<rect class="gray" x="388" y="120" width="8" height="16" fill="rgb(255,255,255)"/>
<rect class="gray" x="388" y="56" width="8" height="16" fill="rgb(255,255,255)"/>
<rect class="gray" x="380" y="120" width="8" height="16" fill="rgb(255,255,255)"/>
<rect class="gray" x="380" y="104" width="8" height="16" fill="rgb(255,255,255)"/>
<rect class="gray" x="380" y="88" width="8" height="16" fill="rgb(255,255,255)"/>
<rect class="gray" x="380" y="72" width="8" height="16" fill="rgb(255,255,255)"/>
<rect class="gray" x="372" y="104" width="8" height="16" fill="rgb(255,255,255)"/>
<rect class="gray" x="372" y="88" width="8" height="16" fill="rgb(255,255,255)"/>
<rect class="gray" x="372" y="72" width="8" height="16" fill="rgb(255,255,255)"/>
<rect class="gray" x="364" y="88" width="8" height="16" fill="rgb(255,255,255)"/>
<rect class="gray" x="356" y="72" width="8" height="16" fill="rgb(255,255,255)"/>
<rect class="gray" x="348" y="120" width="8" height="16" fill="rgb(255,255,255)"/>
<rect class="gray" x="348" y="72" width="8" height="16" fill="rgb(255,255,255)"/>
<rect class="gray" x="348" y="56" width="8" height="16" fill="rgb(255,255,255)"/>
<rect class="gray" x="340" y="120" width="8" height="16" fill="rgb(255,255,255)"/>
<rect class="gray" x="340" y="56" width="8" height="16" fill="rgb(255,255,255)"/>
<rect class="gray" x="332" y="120" width="8" height="16" fill="rgb(255,255,255)"/>
<rect class="gray" x="324" y="120" width="8" height="16" fill="rgb(255,255,255)"/>
<rect class="gray" x="324" y="56" width="8" height="16" fill="rgb(255,255,255)"/>
<rect class="gray" x="316" y="120" width="8" height="16" fill="rgb(255,255,255)"/>
<rect class="gray" x="308" y="104" width="8" height="16" fill="rgb(255,255,255)"/>
<rect class="gray" x="308" y="88" width="8" height="16" fill="rgb(255,255,255)"/>
<rect class="gray" x="308" y="72" width="8" height="16" fill="rgb(255,255,255)"/>
<rect class="gray" x="300" y="104" width="8" height="16" fill="rgb(255,255,255)"/>
<rect class="gray" x="300" y="88" width="8" height="16" fill="rgb(255,255,255)"/>
<rect class="gray" x="284" y="104" width="8" height="16" fill="rgb(255,255,255)"/>
<rect class="gray" x="284" y="88" width="8" height="16" fill="rgb(255,255,255)"/>
<rect class="gray" x="284" y="72" width="8" height="16" fill="rgb(255,255,255)"/>
<rect class="gray" x="276" y="104" width="8" height="16" fill="rgb(255,255,255)"/>
<rect class="gray" x="276" y="88" width="8" height="16" fill="rgb(255,255,255)"/>
<rect class="gray" x="276" y="72" width="8" height="16" fill="rgb(255,255,255)"/>
<rect class="gray" x="276" y="56" width="8" height="16" fill="rgb(255,255,255)"/>
<rect class="gray" x="268" y="120" width="8" height="16" fill="rgb(255,255,255)"/>
<rect class="gray" x="268" y="56" width="8" height="16" fill="rgb(255,255,255)"/>
<rect class="gray" x="260" y="120" width="8" height="16" fill="rgb(255,255,255)"/>
<rect class="gray" x="260" y="56" width="8" height="16" fill="rgb(255,255,255)"/>
<rect class="gray" x="252" y="120" width="8" height="16" fill="rgb(255,255,255)"/>
<rect class="gray" x="252" y="56" width="8" height="16" fill="rgb(255,255,255)"/>
<rect class="gray" x="244" y="152" width="8" height="16" fill="rgb(255,255,255)"/>
<rect class="gray" x="244" y="120" width="8" height="16" fill="rgb(255,255,255)"/>
<rect class="gray" x="244" y="56" width="8" height="16" fill="rgb(255,255,255)"/>
<rect class="gray" x="236" y="152" width="8" height="16" fill="rgb(255,255,255)"/>
<rect class="gray" x="236" y="136" width="8" height="16" fill="rgb(255,255,255)"/>
<rect class="gray" x="236" y="120" width="8" height="16" fill="rgb(255,255,255)"/>
<rect class="gray" x="236" y="104" width="8" height="16" fill="rgb(255,255,255)"/>
<rect class="gray" x="236" y="88" width="8" height="16" fill="rgb(255,255,255)"/>
<rect class="gray" x="236" y="72" width="8" height="16" fill="rgb(255,255,255)"/>
<rect class="gray" x="236" y="56" width="8" height="16" fill="rgb(255,255,255)"/>
<rect class="gray" x="228" y="152" width="8" height="16" fill="rgb(255,255,255)"/>
<rect class="gray" x="228" y="136" width="8" height="16" fill="rgb(255,255,255)"/>
<rect class="gray" x="228" y="120" width="8" height="16" fill="rgb(255,255,255)"/>
<rect class="gray" x="228" y="104" width="8" height="16" fill="rgb(255,255,255)"/>
<rect class="gray" x="228" y="88" width="8" height="16" fill="rgb(255,255,255)"/>
<rect class="gray" x="228" y="72" width="8" height="16" fill="rgb(255,255,255)"/>
<rect class="gray" x="228" y="56" width="8" height="16" fill="rgb(255,255,255)"/>
<rect class="gray" x="220" y="152" width="8" height="16" fill="rgb(255,255,255)"/>
<rect class="gray" x="220" y="56" width="8" height="16" fill="rgb(255,255,255)"/>
<rect class="gray" x="204" y="104" width="8" height="16" fill="rgb(255,255,255)"/>
<rect class="gray" x="204" y="88" width="8" height="16" fill="rgb(255,255,255)"/>
<rect class="gray" x="204" y="72" width="8" height="16" fill="rgb(255,255,255)"/>
<rect class="gray" x="196" y="104" width="8" height="16" fill="rgb(255,255,255)"/>
<rect class="gray" x="196" y="88" width="8" height="16" fill="rgb(255,255,255)"/>
<rect class="gray" x="196" y="72" width="8" height="16" fill="rgb(255,255,255)"/>
<rect class="gray" x="196" y="56" width="8" height="16" fill="rgb(255,255,255)"/>
<rect class="gray" x="188" y="120" width="8" height="16" fill="rgb(255,255,255)"/>
<rect class="gray" x="188" y="56" width="8" height="16" fill="rgb(255,255,255)"/>
<rect class="gray" x="180" y="120" width="8" height="16" fill="rgb(255,255,255)"/>
<rect class="gray" x="180" y="56" width="8" height="16" fill="rgb(255,255,255)"/>
<rect class="gray" x="172" y="120" width="8" height="16" fill="rgb(255,255,255)"/>
<rect class="gray" x="172" y="56" width="8" height="16" fill="rgb(255,255,255)"/>
<rect class="gray" x="164" y="152" width="8" height="16" fill="rgb(255,255,255)"/>
<rect class="gray" x="164" y="120" width="8" height="16" fill="rgb(255,255,255)"/>
<rect class="gray" x="164" y="56" width="8" height="16" fill="rgb(255,255,255)"/>
<rect class="gray" x="156" y="152" width="8" height="16" fill="rgb(255,255,255)"/>
<rect class="gray" x="156" y="136" width="8" height="16" fill="rgb(255,255,255)"/>
<rect class="gray" x="156" y="120" width="8" height="16" fill="rgb(255,255,255)"/>
<rect class="gray" x="156" y="104" width="8" height="16" fill="rgb(255,255,255)"/>
<rect class="gray" x="156" y="88" width="8" height="16" fill="rgb(255,255,255)"/>
<rect class="gray" x="156" y="72" width="8" height="16" fill="rgb(255,255,255)"/>
<rect class="gray" x="156" y="56" width="8" height="16" fill="rgb(255,255,255)"/>
<rect class="gray" x="148" y="152" width="8" height="16" fill="rgb(255,255,255)"/>
<rect class="gray" x="148" y="136" width="8" height="16" fill="rgb(255,255,255)"/>
<rect class="gray" x="148" y="120" width="8" height="16" fill="rgb(255,255,255)"/>
<rect class="gray" x="148" y="104" width="8" height="16" fill="rgb(255,255,255)"/>
<rect class="gray" x="148" y="88" width="8" height="16" fill="rgb(255,255,255)"/>
<rect class="gray" x="148" y="72" width="8" height="16" fill="rgb(255,255,255)"/>
<rect class="gray" x="148" y="56" width="8" height="16" fill="rgb(255,255,255)"/>
<rect class="gray" x="140" y="152" width="8" height="16" fill="rgb(255,255,255)"/>
<rect class="gray" x="140" y="56" width="8" height="16" fill="rgb(255,255,255)"/>
<rect class="gray" x="124" y="120" width="8" height="16" fill="rgb(255,255,255)"/>
<rect class="gray" x="116" y="120" width="8" height="16" fill="rgb(255,255,255)"/>
<rect class="gray" x="116" y="104" width="8" height="16" fill="rgb(255,255,255)"/>
<rect class="gray" x="116" y="88" width="8" height="16" fill="rgb(255,255,255)"/>
<rect class="gray" x="116" y="72" width="8" height="16" fill="rgb(255,255,255)"/>
<rect class="gray" x="116" y="56" width="8" height="16" fill="rgb(255,255,255)"/>
<rect class="gray" x="116" y="24" width="8" height="16" fill="rgb(255,255,255)"/>
<rect class="gray" x="108" y="120" width="8" height="16" fill="rgb(255,255,255)"/>
<rect class="gray" x="108" y="104" width="8" height="16" fill="rgb(255,255,255)"/>
<rect class="gray" x="108" y="88" width="8" height="16" fill="rgb(255,255,255)"/>
<rect class="gray" x="108" y="72" width="8" height="16" fill="rgb(255,255,255)"/>
<rect class="gray" x="108" y="56" width="8" height="16" fill="rgb(255,255,255)"/>
<rect class="gray" x="108" y="24" width="8" height="16" fill="rgb(255,255,255)"/>
<rect class="gray" x="100" y="120" width="8" height="16" fill="rgb(255,255,255)"/>
<rect class="gray" x="100" y="56" width="8" height="16" fill="rgb(255,255,255)"/>
<rect class="gray" x="84" y="120" width="8" height="16" fill="rgb(255,255,255)"/>
<rect class="gray" x="76" y="120" width="8" height="16" fill="rgb(255,255,255)"/>
<rect class="gray" x="76" y="104" width="8" height="16" fill="rgb(255,255,255)"/>
<rect class="gray" x="76" y="56" width="8" height="16" fill="rgb(255,255,255)"/>
<rect class="gray" x="76" y="40" width="8" height="16" fill="rgb(255,255,255)"/>
<rect class="gray" x="68" y="120" width="8" height="16" fill="rgb(255,255,255)"/>
<rect class="gray" x="68" y="104" width="8" height="16" fill="rgb(255,255,255)"/>
<rect class="gray" x="68" y="72" width="8" height="16" fill="rgb(255,255,255)"/>
<rect class="gray" x="68" y="56" width="8" height="16" fill="rgb(255,255,255)"/>
<rect class="gray" x="68" y="40" width="8" height="16" fill="rgb(255,255,255)"/>
<rect class="gray" x="68" y="24" width="8" height="16" fill="rgb(255,255,255)"/>
<rect class="gray" x="60" y="88" width="8" height="16" fill="rgb(255,255,255)"/>
<rect class="gray" x="60" y="72" width="8" height="16" fill="rgb(255,255,255)"/>
<rect class="gray" x="60" y="24" width="8" height="16" fill="rgb(255,255,255)"/>
<rect class="gray" x="52" y="88" width="8" height="16" fill="rgb(255,255,255)"/>
<rect class="gray" x="52" y="72" width="8" height="16" fill="rgb(255,255,255)"/>
<rect class="gray" x="44" y="72" width="8" height="16" fill="rgb(255,255,255)"/>
<rect class="gray" x="36" y="120" width="8" height="16" fill="rgb(255,255,255)"/>
<rect class="gray" x="36" y="72" width="8" height="16" fill="rgb(255,255,255)"/>
<rect class="gray" x="28" y="120" width="8" height="16" fill="rgb(255,255,255)"/>
<rect class="gray" x="28" y="104" width="8" height="16" fill="rgb(255,255,255)"/>
<rect class="gray" x="28" y="88" width="8" height="16" fill="rgb(255,255,255)"/>
<rect class="gray" x="28" y="72" width="8" height="16" fill="rgb(255,255,255)"/>
<rect class="gray" x="28" y="56" width="8" height="16" fill="rgb(255,255,255)"/>
<rect class="gray" x="28" y="40" width="8" height="16" fill="rgb(255,255,255)"/>
<rect class="gray" x="28" y="24" width="8" height="16" fill="rgb(255,255,255)"/>
<rect class="gray" x="20" y="120" width="8" height="16" fill="rgb(255,255,255)"/>
<rect class="gray" x="20" y="104" width="8" height="16" fill="rgb(255,255,255)"/>
<rect class="gray" x="20" y="88" width="8" height="16" fill="rgb(255,255,255)"/>
<rect class="gray" x="20" y="72" width="8" height="16" fill="rgb(255,255,255)"/>
<rect class="gray" x="20" y="56" width="8" height="16" fill="rgb(255,255,255)"/>
<rect class="gray" x="20" y="40" width="8" height="16" fill="rgb(255,255,255)"/>
<rect class="gray" x="20" y="24" width="8" height="16" fill="rgb(255,255,255)"/>
<rect class="gray" x="12" y="120" width="8" height="16" fill="rgb(255,255,255)"/>
<rect class="gray" x="12" y="24" width="8" height="16" fill="rgb(255,255,255)"/>
<g class="text">
<text x="112" y="20" textLength="8" lengthAdjust="spacingAndGlyphs">▄</text>
<text x="120" y="20" textLength="8" lengthAdjust="spacingAndGlyphs">▄</text>
<text x="424" y="20" textLength="8" lengthAdjust="spacingAndGlyphs">▄</text>
<text x="432" y="20" textLength="8" lengthAdjust="spacingAndGlyphs">▄</text>
<text x="8" y="36" textLength="8" lengthAdjust="spacingAndGlyphs">▀</text>
<text x="40" y="36" textLength="8" lengthAdjust="spacingAndGlyphs">▀</text>
<text x="48" y="36" textLength="8" lengthAdjust="spacingAndGlyphs">▀</text>
<text x="56" y="36" textLength="8" lengthAdjust="spacingAndGlyphs">▀</text>
<text x="80" y="36" textLength="8" lengthAdjust="spacingAndGlyphs">▄</text>
<text x="408" y="36" textLength="8" lengthAdjust="spacingAndGlyphs">▀</text>
<text x="480" y="36" textLength="8" lengthAdjust="spacingAndGlyphs">▀</text>
<text x="512" y="36" textLength="8" lengthAdjust="spacingAndGlyphs">▀</text>
<text x="520" y="36" textLength="8" lengthAdjust="spacingAndGlyphs">▀</text>
<text x="528" y="36" textLength="8" lengthAdjust="spacingAndGlyphs">▀</text>
<text x="552" y="36" textLength="8" lengthAdjust="spacingAndGlyphs">▄</text>
<text x="64" y="52" textLength="8" lengthAdjust="spacingAndGlyphs">▀</text>
<text x="88" y="52" textLength="8" lengthAdjust="spacingAndGlyphs">▄</text>
<text x="544" y="52" textLength="8" lengthAdjust="spacingAndGlyphs">▀</text>
<text x="568" y="52" textLength="8" lengthAdjust="spacingAndGlyphs">▄</text>
<text x="64" y="68" textLength="8" lengthAdjust="spacingAndGlyphs">▄</text>
<text x="96" y="68" textLength="8" lengthAdjust="spacingAndGlyphs">▀</text>
<text x="136" y="68" textLength="8" lengthAdjust="spacingAndGlyphs">▀</text>
<text x="208" y="68" textLength="8" lengthAdjust="spacingAndGlyphs">▄</text>
<text x="216" y="68" textLength="8" lengthAdjust="spacingAndGlyphs">▀</text>
<text x="288" y="68" textLength="8" lengthAdjust="spacingAndGlyphs">▄</text>
<text x="312" y="68" textLength="8" lengthAdjust="spacingAndGlyphs">▄</text>
<text x="320" y="68" textLength="8" lengthAdjust="spacingAndGlyphs">▄</text>
<text x="336" y="68" textLength="8" lengthAdjust="spacingAndGlyphs">▀</text>
<text x="384" y="68" textLength="8" lengthAdjust="spacingAndGlyphs">▄</text>
<text x="400" y="68" textLength="8" lengthAdjust="spacingAndGlyphs">▀</text>
<text x="408" y="68" textLength="8" lengthAdjust="spacingAndGlyphs">▀</text>
<text x="552" y="68" textLength="8" lengthAdjust="spacingAndGlyphs">▀</text>
<text x="584" y="68" textLength="8" lengthAdjust="spacingAndGlyphs">▄</text>
<text x="608" y="68" textLength="8" lengthAdjust="spacingAndGlyphs">▀</text>
<text x="632" y="68" textLength="8" lengthAdjust="spacingAndGlyphs">▄</text>
<text x="648" y="68" textLength="8" lengthAdjust="spacingAndGlyphs">▄</text>
<text x="672" y="68" textLength="8" lengthAdjust="spacingAndGlyphs">▀</text>
<text x="704" y="68" textLength="8" lengthAdjust="spacingAndGlyphs">▄</text>
<text x="728" y="68" textLength="8" lengthAdjust="spacingAndGlyphs">▀</text>
<text x="192" y="84" textLength="8" lengthAdjust="spacingAndGlyphs">▀</text>
<text x="272" y="84" textLength="8" lengthAdjust="spacingAndGlyphs">▀</text>
<text x="304" y="84" textLength="8" lengthAdjust="spacingAndGlyphs">▄</text>
<text x="320" y="84" textLength="8" lengthAdjust="spacingAndGlyphs">▀</text>
<text x="368" y="84" textLength="8" lengthAdjust="spacingAndGlyphs">▄</text>
<text x="592" y="84" textLength="8" lengthAdjust="spacingAndGlyphs">▀</text>
<text x="624" y="84" textLength="8" lengthAdjust="spacingAndGlyphs">▀</text>
<text x="656" y="84" textLength="8" lengthAdjust="spacingAndGlyphs">▀</text>
<text x="744" y="84" textLength="8" lengthAdjust="spacingAndGlyphs">▀</text>
<text x="752" y="84" textLength="8" lengthAdjust="spacingAndGlyphs">▀</text>
<text x="72" y="100" textLength="8" lengthAdjust="spacingAndGlyphs">▄</text>
<text x="320" y="100" textLength="8" lengthAdjust="spacingAndGlyphs">▀</text>
<text x="328" y="100" textLength="8" lengthAdjust="spacingAndGlyphs">▀</text>
<text x="336" y="100" textLength="8" lengthAdjust="spacingAndGlyphs">▀</text>
<text x="344" y="100" textLength="8" lengthAdjust="spacingAndGlyphs">▀</text>
<text x="352" y="100" textLength="8" lengthAdjust="spacingAndGlyphs">▀</text>
<text x="360" y="100" textLength="8" lengthAdjust="spacingAndGlyphs">▀</text>
<text x="552" y="100" textLength="8" lengthAdjust="spacingAndGlyphs">▄</text>
<text x="704" y="100" textLength="8" lengthAdjust="spacingAndGlyphs">▀</text>
<text x="752" y="100" textLength="8" lengthAdjust="spacingAndGlyphs">▄</text>
<text x="64" y="116" textLength="8" lengthAdjust="spacingAndGlyphs">▀</text>
<text x="88" y="116" textLength="8" lengthAdjust="spacingAndGlyphs">▄</text>
<text x="192" y="116" textLength="8" lengthAdjust="spacingAndGlyphs">▄</text>
<text x="272" y="116" textLength="8" lengthAdjust="spacingAndGlyphs">▄</text>
<text x="320" y="116" textLength="8" lengthAdjust="spacingAndGlyphs">▄</text>
<text x="360" y="116" textLength="8" lengthAdjust="spacingAndGlyphs">▄</text>
<text x="368" y="116" textLength="8" lengthAdjust="spacingAndGlyphs">▀</text>
<text x="544" y="116" textLength="8" lengthAdjust="spacingAndGlyphs">▄</text>
<text x="568" y="116" textLength="8" lengthAdjust="spacingAndGlyphs">▀</text>
<text x="592" y="116" textLength="8" lengthAdjust="spacingAndGlyphs">▄</text>
<text x="624" y="116" textLength="8" lengthAdjust="spacingAndGlyphs">▄</text>
<text x="656" y="116" textLength="8" lengthAdjust="spacingAndGlyphs">▄</text>
<text x="696" y="116" textLength="8" lengthAdjust="spacingAndGlyphs">▄</text>
<text x="712" y="116" textLength="8" lengthAdjust="spacingAndGlyphs">▄</text>
<text x="8" y="132" textLength="8" lengthAdjust="spacingAndGlyphs">▄</text>
<text x="48" y="132" textLength="8" lengthAdjust="spacingAndGlyphs">▄</text>
<text x="64" y="132" textLength="8" lengthAdjust="spacingAndGlyphs">▄</text>
<text x="96" y="132" textLength="8" lengthAdjust="spacingAndGlyphs">▄</text>
<text x="136" y="132" textLength="8" lengthAdjust="spacingAndGlyphs">▄</text>
<text x="200" y="132" textLength="8" lengthAdjust="spacingAndGlyphs">▀</text>
<text x="280" y="132" textLength="8" lengthAdjust="spacingAndGlyphs">▀</text>
<text x="312" y="132" textLength="8" lengthAdjust="spacingAndGlyphs">▀</text>
<text x="360" y="132" textLength="8" lengthAdjust="spacingAndGlyphs">▀</text>
<text x="376" y="132" textLength="8" lengthAdjust="spacingAndGlyphs">▀</text>
<text x="416" y="132" textLength="8" lengthAdjust="spacingAndGlyphs">▀</text>
<text x="448" y="132" textLength="8" lengthAdjust="spacingAndGlyphs">▄</text>
<text x="480" y="132" textLength="8" lengthAdjust="spacingAndGlyphs">▄</text>
<text x="552" y="132" textLength="8" lengthAdjust="spacingAndGlyphs">▀</text>
<text x="584" y="132" textLength="8" lengthAdjust="spacingAndGlyphs">▀</text>
<text x="632" y="132" textLength="8" lengthAdjust="spacingAndGlyphs">▀</text>
<text x="688" y="132" textLength="8" lengthAdjust="spacingAndGlyphs">▀</text>
<text x="752" y="132" textLength="8" lengthAdjust="spacingAndGlyphs">▀</text>
<text x="136" y="164" textLength="8" lengthAdjust="spacingAndGlyphs">▄</text>
<text x="176" y="164" textLength="8" lengthAdjust="spacingAndGlyphs">▄</text>
<text x="216" y="164" textLength="8" lengthAdjust="spacingAndGlyphs">▄</text>
<text x="256" y="164" textLength="8" lengthAdjust="spacingAndGlyphs">▄</text>
</g>
</svg>
