<svg xmlns="http://www.w3.org/2000/svg" version="1.1" height="176" width="760" viewBox="0 0 760 176" class="diagram" text-anchor="middle" font-family="monospace" font-size="13px">
<rect class="gray" x="748" y="104" width="8" height="16" fill="rgb(255,255,255)"/>
<rect class="gray" x="748" y="56" width="8" height="16" fill="rgb(255,255,255)"/>
<rect class="gray" x="740" y="120" width="8" height="16" fill="rgb(255,255,255)"/>
<rect class="gray" x="740" y="104" width="8" height="16" fill="rgb(255,255,255)"/>
<rect class="gray" x="740" y="88" width="8" height="16" fill="rgb(255,255,255)"/>
<rect class="gray" x="740" y="56" width="8" height="16" fill="rgb(255,255,255)"/>
<rect class="gray" x="732" y="120" width="8" height="16" fill="rgb(255,255,255)"/>
<rect class="gray" x="732" y="88" width="8" height="16" fill="rgb(255,255,255)"/>
<rect class="gray" x="732" y="56" width="8" height="16" fill="rgb(255,255,255)"/>
<rect class="gray" x="724" y="120" width="8" height="16" fill="rgb(255,255,255)"/>
<rect class="gray" x="724" y="88" width="8" height="16" fill="rgb(255,255,255)"/>
<rect class="gray" x="716" y="120" width="8" height="16" fill="rgb(255,255,255)"/>
<rect class="gray" x="716" y="88" width="8" height="16" fill="rgb(255,255,255)"/>
<rect class="gray" x="716" y="56" width="8" height="16" fill="rgb(255,255,255)"/>
<rect class="gray" x="708" y="120" width="8" height="16" fill="rgb(255,255,255)"/>
<rect class="gray" x="708" y="88" width="8" height="16" fill="rgb(255,255,255)"/>
<rect class="gray" x="708" y="72" width="8" height="16" fill="rgb(255,255,255)"/>
<rect class="gray" x="708" y="56" width="8" height="16" fill="rgb(255,255,255)"/>
<rect class="gray" x="700" y="120" width="8" height="16" fill="rgb(255,255,255)"/>
<rect class="gray" x="700" y="104" width="8" height="16" fill="rgb(255,255,255)"/>
<rect class="gray" x="700" y="72" width="8" height="16" fill="rgb(255,255,255)"/>
<rect class="gray" x="684" y="72" width="8" height="16" fill="rgb(255,255,255)"/>
<rect class="gray" x="684" y="56" width="8" height="16" fill="rgb(255,255,255)"/>
<rect class="gray" x="676" y="120" width="8" height="16" fill="rgb(255,255,255)"/>
<rect class="gray" x="676" y="72" width="8" height="16" fill="rgb(255,255,255)"/>
<rect class="gray" x="676" y="56" width="8" height="16" fill="rgb(255,255,255)"/>
<rect class="gray" x="668" y="120" width="8" height="16" fill="rgb(255,255,255)"/>
<rect class="gray" x="660" y="120" width="8" height="16" fill="rgb(255,255,255)"/>
<rect class="gray" x="660" y="56" width="8" height="16" fill="rgb(255,255,255)"/>
<rect class="gray" x="652" y="120" width="8" height="16" fill="rgb(255,255,255)"/>
<rect class="gray" x="652" y="56" width="8" height="16" fill="rgb(255,255,255)"/>
<rect class="gray" x="644" y="120" width="8" height="16" fill="rgb(255,255,255)"/>
<rect class="gray" x="644" y="104" width="8" height="16" fill="rgb(255,255,255)"/>
<rect class="gray" x="644" y="88" width="8" height="16" fill="rgb(255,255,255)"/>
<rect class="gray" x="644" y="72" width="8" height="16" fill="rgb(255,255,255)"/>
<rect class="gray" x="636" y="104" width="8" height="16" fill="rgb(255,255,255)"/>
<rect class="gray" x="636" y="88" width="8" height="16" fill="rgb(255,255,255)"/>
<rect class="gray" x="636" y="72" width="8" height="16" fill="rgb(255,255,255)"/>
<rect class="gray" x="628" y="104" width="8" height="16" fill="rgb(255,255,255)"/>
<rect class="gray" x="628" y="88" width="8" height="16" fill="rgb(255,255,255)"/>
<rect class="gray" x="628" y="72" width="8" height="16" fill="rgb(255,255,255)"/>
<rect class="gray" x="620" y="120" width="8" height="16" fill="rgb(255,255,255)"/>
<rect class="gray" x="620" y="56" width="8" height="16" fill="rgb(255,255,255)"/>
<rect class="gray" x="612" y="120" width="8" height="16" fill="rgb(255,255,255)"/>
<rect class="gray" x="612" y="56" width="8" height="16" fill="rgb(255,255,255)"/>
<rect class="gray" x="604" y="120" width="8" height="16" fill="rgb(255,255,255)"/>
<rect class="gray" x="596" y="120" width="8" height="16" fill="rgb(255,255,255)"/>
<rect class="gray" x="596" y="56" width="8" height="16" fill="rgb(255,255,255)"/>
<rect class="gray" x="588" y="120" width="8" height="16" fill="rgb(255,255,255)"/>
<rect class="gray" x="588" y="56" width="8" height="16" fill="rgb(255,255,255)"/>
<rect class="gray" x="580" y="104" width="8" height="16" fill="rgb(255,255,255)"/>
<rect class="gray" x="580" y="88" width="8" height="16" fill="rgb(255,255,255)"/>
<rect class="gray" x="580" y="72" width="8" height="16" fill="rgb(255,255,255)"/>
<rect class="gray" x="572" y="104" width="8" height="16" fill="rgb(255,255,255)"/>
<rect class="gray" x="572" y="88" width="8" height="16" fill="rgb(255,255,255)"/>
<rect class="gray" x="572" y="72" width="8" height="16" fill="rgb(255,255,255)"/>
<rect class="gray" x="564" y="88" width="8" height="16" fill="rgb(255,255,255)"/>
<rect class="gray" x="564" y="72" width="8" height="16" fill="rgb(255,255,255)"/>
<rect class="gray" x="564" y="56" width="8" height="16" fill="rgb(255,255,255)"/>
<rect class="gray" x="556" y="104" width="8" height="16" fill="rgb(255,255,255)"/>
<rect class="gray" x="556" y="88" width="8" height="16" fill="rgb(255,255,255)"/>
<rect class="gray" x="556" y="72" width="8" height="16" fill="rgb(255,255,255)"/>
<rect class="gray" x="556" y="56" width="8" height="16" fill="rgb(255,255,255)"/>
<rect class="gray" x="556" y="40" width="8" height="16" fill="rgb(255,255,255)"/>
<rect class="gray" x="548" y="104" width="8" height="16" fill="rgb(255,255,255)"/>
<rect class="gray" x="548" y="40" width="8" height="16" fill="rgb(255,255,255)"/>
<rect class="gray" x="540" y="120" width="8" height="16" fill="rgb(255,255,255)"/>
<rect class="gray" x="540" y="24" width="8" height="16" fill="rgb(255,255,255)"/>
<rect class="gray" x="532" y="120" width="8" height="16" fill="rgb(255,255,255)"/>
<rect class="gray" x="532" y="24" width="8" height="16" fill="rgb(255,255,255)"/>
<rect class="gray" x="524" y="120" width="8" height="16" fill="rgb(255,255,255)"/>
<rect class="gray" x="516" y="120" width="8" height="16" fill="rgb(255,255,255)"/>
<rect class="gray" x="508" y="120" width="8" height="16" fill="rgb(255,255,255)"/>
<rect class="gray" x="500" y="120" width="8" height="16" fill="rgb(255,255,255)"/>
<rect class="gray" x="500" y="104" width="8" height="16" fill="rgb(255,255,255)"/>
<rect class="gray" x="500" y="88" width="8" height="16" fill="rgb(255,255,255)"/>
<rect class="gray" x="500" y="72" width="8" height="16" fill="rgb(255,255,255)"/>
<rect class="gray" x="500" y="56" width="8" height="16" fill="rgb(255,255,255)"/>
<rect class="gray" x="500" y="40" width="8" height="16" fill="rgb(255,255,255)"/>
<rect class="gray" x="500" y="24" width="8" height="16" fill="rgb(255,255,255)"/>
<rect class="gray" x="492" y="120" width="8" height="16" fill="rgb(255,255,255)"/>
<rect class="gray" x="492" y="104" width="8" height="16" fill="rgb(255,255,255)"/>
<rect class="gray" x="492" y="88" width="8" height="16" fill="rgb(255,255,255)"/>
<rect class="gray" x="492" y="72" width="8" height="16" fill="rgb(255,255,255)"/>
<rect class="gray" x="492" y="56" width="8" height="16" fill="rgb(255,255,255)"/>
<rect class="gray" x="492" y="40" width="8" height="16" fill="rgb(255,255,255)"/>
<rect class="gray" x="492" y="24" width="8" height="16" fill="rgb(255,255,255)"/>
<rect class="gray" x="484" y="120" width="8" height="16" fill="rgb(255,255,255)"/>
<rect class="gray" x="484" y="24" width="8" height="16" fill="rgb(255,255,255)"/>
<rect class="gray" x="436" y="120" width="8" height="16" fill="rgb(255,255,255)"/>
<rect class="gray" x="428" y="120" width="8" height="16" fill="rgb(255,255,255)"/>
<rect class="gray" x="428" y="104" width="8" height="16" fill="rgb(255,255,255)"/>
<rect class="gray" x="428" y="88" width="8" height="16" fill="rgb(255,255,255)"/>
<rect class="gray" x="428" y="72" width="8" height="16" fill="rgb(255,255,255)"/>
<rect class="gray" x="428" y="56" width="8" height="16" fill="rgb(255,255,255)"/>
<rect class="gray" x="428" y="40" width="8" height="16" fill="rgb(255,255,255)"/>
<rect class="gray" x="428" y="24" width="8" height="16" fill="rgb(255,255,255)"/>
<rect class="gray" x="420" y="120" width="8" height="16" fill="rgb(255,255,255)"/>
<rect class="gray" x="420" y="104" width="8" height="16" fill="rgb(255,255,255)"/>
<rect class="gray" x="420" y="88" width="8" height="16" fill="rgb(255,255,255)"/>
<rect class="gray" x="420" y="72" width="8" height="16" fill="rgb(255,255,255)"/>
<rect class="gray" x="420" y="56" width="8" height="16" fill="rgb(255,255,255)"/>
<rect class="gray" x="420" y="40" width="8" height="16" fill="rgb(255,255,255)"/>
<rect class="gray" x="420" y="24" width="8" height="16" fill="rgb(255,255,255)"/>
<rect class="gray" x="412" y="56" width="8" height="16" fill="rgb(255,255,255)"/>
<rect class="gray" x="412" y="24" width="8" height="16" fill="rgb(255,255,255)"/>
<rect class="gray" x="404" y="120" width="8" height="16" fill="rgb(255,255,255)"/>
<rect class="gray" x="396" y="120" width="8" height="16" fill="rgb(255,255,255)"/>
<rect class="gray" x="388" y="120" width="8" height="16" fill="rgb(255,255,255)"/>
<rect class="gray" x="388" y="56" width="8" height="16" fill="rgb(255,255,255)"/>
<rect class="gray" x="380" y="120" width="8" height="16" fill="rgb(255,255,255)"/>
<rect class="gray" x="380" y="104" width="8" height="16" fill="rgb(255,255,255)"/>
<rect class="gray" x="380" y="88" width="8" height="16" fill="rgb(255,255,255)"/>
<rect class="gray" x="380" y="72" width="8" height="16" fill="rgb(255,255,255)"/>
<rect class="gray" x="372" y="104" width="8" height="16" fill="rgb(255,255,255)"/>
<rect class="gray" x="372" y="88" width="8" height="16" fill="rgb(255,255,255)"/>
<rect class="gray" x="372" y="72" width="8" height="16" fill="rgb(255,255,255)"/>
<rect class="gray" x="364" y="88" width="8" height="16" fill="rgb(255,255,255)"/>
<rect class="gray" x="356" y="72" width="8" height="16" fill="rgb(255,255,255)"/>
<rect class="gray" x="348" y="120" width="8" height="16" fill="rgb(255,255,255)"/>
<rect class="gray" x="348" y="72" width="8" height="16" fill="rgb(255,255,255)"/>
<rect class="gray" x="348" y="56" width="8" height="16" fill="rgb(255,255,255)"/>
<rect class="gray" x="340" y="120" width="8" height="16" fill="rgb(255,255,255)"/>
<rect class="gray" x="340" y="56" width="8" height="16" fill="rgb(255,255,255)"/>
<rect class="gray" x="332" y="120" width="8" height="16" fill="rgb(255,255,255)"/>
<rect class="gray" x="324" y="120" width="8" height="16" fill="rgb(255,255,255)"/>
<rect class="gray" x="324" y="56" width="8" height="16" fill="rgb(255,255,255)"/>
<rect class="gray" x="316" y="120" width="8" height="16" fill="rgb(255,255,255)"/>
<rect class="gray" x="308" y="104" width="8" height="16" fill="rgb(255,255,255)"/>
<rect class="gray" x="308" y="88" width="8" height="16" fill="rgb(255,255,255)"/>
<rect class="gray" x="308" y="72" width="8" height="16" fill="rgb(255,255,255)"/>
<rect class="gray" x="300" y="104" width="8" height="16" fill="rgb(255,255,255)"/>
<rect class="gray" x="300" y="88" width="8" height="16" fill="rgb(255,255,255)"/>
<rect class="gray" x="284" y="104" width="8" height="16" fill="rgb(255,255,255)"/>
<rect class="gray" x="284" y="88" width="8" height="16" fill="rgb(255,255,255)"/>
<rect class="gray" x="284" y="72" width="8" height="16" fill="rgb(255,255,255)"/>
<rect class="gray" x="276" y="104" width="8" height="16" fill="rgb(255,255,255)"/>
<rect class="gray" x="276" y="88" width="8" height="16" fill="rgb(255,255,255)"/>
<rect class="gray" x="276" y="72" width="8" height="16" fill="rgb(255,255,255)"/>
<rect class="gray" x="276" y="56" width="8" height="16" fill="rgb(255,255,255)"/>
<rect class="gray" x="268" y="120" width="8" height="16" fill="rgb(255,255,255)"/>
<rect class="gray" x="268" y="56" width="8" height="16" fill="rgb(255,255,255)"/>
<rect class="gray" x="260" y="120" width="8" height="16" fill="rgb(255,255,255)"/>
<rect class="gray" x="260" y="56" width="8" height="16" fill="rgb(255,255,255)"/>
<rect class="gray" x="252" y="120" width="8" height="16" fill="rgb(255,255,255)"/>
<rect class="gray" x="252" y="56" width="8" height="16" fill="rgb(255,255,255)"/>
<rect class="gray" x="244" y="152" width="8" height="16" fill="rgb(255,255,255)"/>
<rect class="gray" x="244" y="120" width="8" height="16" fill="rgb(255,255,255)"/>
<rect class="gray" x="244" y="56" width="8" height="16" fill="rgb(255,255,255)"/>
<rect class="gray" x="236" y="152" width="8" height="16" fill="rgb(255,255,255)"/>
<rect class="gray" x="236" y="136" width="8" height="16" fill="rgb(255,255,255)"/>
<rect class="gray" x="236" y="120" width="8" height="16" fill="rgb(255,255,255)"/>
<rect class="gray" x="236" y="104" width="8" height="16" fill="rgb(255,255,255)"/>
<rect class="gray" x="236" y="88" width="8" height="16" fill="rgb(255,255,255)"/>
<rect class="gray" x="236" y="72" width="8" height="16" fill="rgb(255,255,255)"/>
<rect class="gray" x="236" y="56" width="8" height="16" fill="rgb(255,255,255)"/>
<rect class="gray" x="228" y="152" width="8" height="16" fill="rgb(255,255,255)"/>
<rect class="gray" x="228" y="136" width="8" height="16" fill="rgb(255,255,255)"/>
<rect class="gray" x="228" y="120" width="8" height="16" fill="rgb(255,255,255)"/>
<rect class="gray" x="228" y="104" width="8" height="16" fill="rgb(255,255,255)"/>
<rect class="gray" x="228" y="88" width="8" height="16" fill="rgb(255,255,255)"/>
<rect class="gray" x="228" y="72" width="8" height="16" fill="rgb(255,255,255)"/>
<rect class="gray" x="228" y="56" width="8" height="16" fill="rgb(255,255,255)"/>
<rect class="gray" x="220" y="152" width="8" height="16" fill="rgb(255,255,255)"/>
<rect class="gray" x="220" y="56" width="8" height="16" fill="rgb(255,255,255)"/>
<rect class="gray" x="204" y="104" width="8" height="16" fill="rgb(255,255,255)"/>
<rect class="gray" x="204" y="88" width="8" height="16" fill="rgb(255,255,255)"/>
<rect class="gray" x="204" y="72" width="8" height="16" fill="rgb(255,255,255)"/>
<rect class="gray" x="196" y="104" width="8" height="16" fill="rgb(255,255,255)"/>
<rect class="gray" x="196" y="88" width="8" height="16" fill="rgb(255,255,255)"/>
<rect class="gray" x="196" y="72" width="8" height="16" fill="rgb(255,255,255)"/>
<rect class="gray" x="196" y="56" width="8" height="16" fill="rgb(255,255,255)"/>
<rect class="gray" x="188" y="120" width="8" height="16" fill="rgb(255,255,255)"/>
<rect class="gray" x="188" y="56" width="8" height="16" fill="rgb(255,255,255)"/>
<rect class="gray" x="180" y="120" width="8" height="16" fill="rgb(255,255,255)"/>
<rect class="gray" x="180" y="56" width="8" height="16" fill="rgb(255,255,255)"/>
<rect class="gray" x="172" y="120" width="8" height="16" fill="rgb(255,255,255)"/>
<rect class="gray" x="172" y="56" width="8" height="16" fill="rgb(255,255,255)"/>
<rect class="gray" x="164" y="152" width="8" height="16" fill="rgb(255,255,255)"/>
<rect class="gray" x="164" y="120" width="8" height="16" fill="rgb(255,255,255)"/>
<rect class="gray" x="164" y="56" width="8" height="16" fill="rgb(255,255,255)"/>
<rect class="gray" x="156" y="152" width="8" height="16" fill="rgb(255,255,255)"/>
<rect class="gray" x="156" y="136" width="8" height="16" fill="rgb(255,255,255)"/>
<rect class="gray" x="156" y="120" width="8" height="16" fill="rgb(255,255,255)"/>
<rect class="gray" x="156" y="104" width="8" height="16" fill="rgb(255,255,255)"/>
<rect class="gray" x="156" y="88" width="8" height="16" fill="rgb(255,255,255)"/>
<rect class="gray" x="156" y="72" width="8" height="16" fill="rgb(255,255,255)"/>
<rect class="gray" x="156" y="56" width="8" height="16" fill="rgb(255,255,255)"/>
<rect class="gray" x="148" y="152" width="8" height="16" fill="rgb(255,255,255)"/>
<rect class="gray" x="148" y="136" width="8" height="16" fill="rgb(255,255,255)"/>
<rect class="gray" x="148" y="120" width="8" height="16" fill="rgb(255,255,255)"/>
<rect class="gray" x="148" y="104" width="8" height="16" fill="rgb(255,255,255)"/>
<rect class="gray" x="148" y="88" width="8" height="16" fill="rgb(255,255,255)"/>
<rect class="gray" x="148" y="72" width="8" height="16" fill="rgb(255,255,255)"/>
<rect class="gray" x="148" y="56" width="8" height="16" fill="rgb(255,255,255)"/>
<rect class="gray" x="140" y="152" width="8" height="16" fill="rgb(255,255,255)"/>
<rect class="gray" x="140" y="56" width="8" height="16" fill="rgb(255,255,255)"/>
<rect class="gray" x="124" y="120" width="8" height="16" fill="rgb(255,255,255)"/>
<rect class="gray" x="116" y="120" width="8" height="16" fill="rgb(255,255,255)"/>
<rect class="gray" x="116" y="104" width="8" height="16" fill="rgb(255,255,255)"/>
<rect class="gray" x="116" y="88" width="8" height="16" fill="rgb(255,255,255)"/>
<rect class="gray" x="116" y="72" width="8" height="16" fill="rgb(255,255,255)"/>
<rect class="gray" x="116" y="56" width="8" height="16" fill="rgb(255,255,255)"/>
<rect class="gray" x="116" y="24" width="8" height="16" fill="rgb(255,255,255)"/>
<rect class="gray" x="108" y="120" width="8" height="16" fill="rgb(255,255,255)"/>
<rect class="gray" x="108" y="104" width="8" height="16" fill="rgb(255,255,255)"/>
<rect class="gray" x="108" y="88" width="8" height="16" fill="rgb(255,255,255)"/>
<rect class="gray" x="108" y="72" width="8" height="16" fill="rgb(255,255,255)"/>
<rect class="gray" x="108" y="56" width="8" height="16" fill="rgb(255,255,255)"/>
<rect class="gray" x="108" y="24" width="8" height="16" fill="rgb(255,255,255)"/>
<rect class="gray" x="100" y="120" width="8" height="16" fill="rgb(255,255,255)"/>
<rect class="gray" x="100" y="56" width="8" height="16" fill="rgb(255,255,255)"/>
<rect class="gray" x="84" y="120" width="8" height="16" fill="rgb(255,255,255)"/>
<rect class="gray" x="76" y="120" width="8" height="16" fill="rgb(255,255,255)"/>
<rect class="gray" x="76" y="104" width="8" height="16" fill="rgb(255,255,255)"/>
<rect class="gray" x="76" y="56" width="8" height="16" fill="rgb(255,255,255)"/>
<rect class="gray" x="76" y="40" width="8" height="16" fill="rgb(255,255,255)"/>
<rect class="gray" x="68" y="120" width="8" height="16" fill="rgb(255,255,255)"/>
<rect class="gray" x="68" y="104" width="8" height="16" fill="rgb(255,255,255)"/>
<rect class="gray" x="68" y="72" width="8" height="16" fill="rgb(255,255,255)"/>
<rect class="gray" x="68" y="56" width="8" height="16" fill="rgb(255,255,255)"/>
<rect class="gray" x="68" y="40" width="8" height="16" fill="rgb(255,255,255)"/>
<rect class="gray" x="68" y="24" width="8" height="16" fill="rgb(255,255,255)"/>
<rect class="gray" x="60" y="88" width="8" height="16" fill="rgb(255,255,255)"/>
<rect class="gray" x="60" y="72" width="8" height="16" fill="rgb(255,255,255)"/>
<rect class="gray" x="60" y="24" width="8" height="16" fill="rgb(255,255,255)"/>
<rect class="gray" x="52" y="88" width="8" height="16" fill="rgb(255,255,255)"/>
<rect class="gray" x="52" y="72" width="8" height="16" fill="rgb(255,255,255)"/>
<rect class="gray" x="44" y="72" width="8" height="16" fill="rgb(255,255,255)"/>
<rect class="gray" x="36" y="120" width="8" height="16" fill="rgb(255,255,255)"/>
<rect class="gray" x="36" y="72" width="8" height="16" fill="rgb(255,255,255)"/>
<rect class="gray" x="28" y="120" width="8" height="16" fill="rgb(255,255,255)"/>
<rect class="gray" x="28" y="104" width="8" height="16" fill="rgb(255,255,255)"/>
<rect class="gray" x="28" y="88" width="8" height="16" fill="rgb(255,255,255)"/>
<rect class="gray" x="28" y="72" width="8" height="16" fill="rgb(255,255,255)"/>
<rect class="gray" x="28" y="56" width="8" height="16" fill="rgb(255,255,255)"/>
<rect class="gray" x="28" y="40" width="8" height="16" fill="rgb(255,255,255)"/>
<rect class="gray" x="28" y="24" width="8" height="16" fill="rgb(255,255,255)"/>
<rect class="gray" x="20" y="120" width="8" height="16" fill="rgb(255,255,255)"/>
<rect class="gray" x="20" y="104" width="8" height="16" fill="rgb(255,255,255)"/>
<rect class="gray" x="20" y="88" width="8" height="16" fill="rgb(255,255,255)"/>
<rect class="gray" x="20" y="72" width="8" height="16" fill="rgb(255,255,255)"/>
<rect class="gray" x="20" y="56" width="8" height="16" fill="rgb(255,255,255)"/>
<rect class="gray" x="20" y="40" width="8" height="16" fill="rgb(255,255,255)"/>
<rect class="gray" x="20" y="24" width="8" height="16" fill="rgb(255,255,255)"/>
<rect class="gray" x="12" y="120" width="8" height="16" fill="rgb(255,255,255)"/>
<rect class="gray" x="12" y="24" width="8" height="16" fill="rgb(255,255,255)"/>
<g class="text">

</g>
</svg>
