<?xml version="1.0" encoding="UTF-8" standalone="no"?>
<svg
   id="svg"
   version="1.1"
   width="177.55211"
   height="135.7476"
   viewBox="0 0 355.10422 135.7476"
   sodipodi:docname="rippedtransparentproper.svg"
   inkscape:version="1.1.2 (b8e25be833, 2022-02-05)"
   xmlns:inkscape="http://www.inkscape.org/namespaces/inkscape"
   xmlns:sodipodi="http://sodipodi.sourceforge.net/DTD/sodipodi-0.dtd"
   xmlns="http://www.w3.org/2000/svg"
   xmlns:svg="http://www.w3.org/2000/svg">
  <defs
     id="defs8" />
  <sodipodi:namedview
     id="namedview6"
     pagecolor="#ffffff"
     bordercolor="#666666"
     borderopacity="1.0"
     inkscape:pageshadow="2"
     inkscape:pageopacity="0.0"
     inkscape:pagecheckerboard="0"
     showgrid="false"
     inkscape:zoom="2.3075"
     inkscape:cx="138.02817"
     inkscape:cy="95.341278"
     inkscape:window-width="1920"
     inkscape:window-height="1031"
     inkscape:window-x="-8"
     inkscape:window-y="-8"
     inkscape:window-maximized="1"
     inkscape:current-layer="svgg"
     fit-margin-top="0"
     fit-margin-left="0"
     fit-margin-right="0"
     fit-margin-bottom="0" />
  <g
     id="svgg"
     transform="translate(-20.797903,-139.63415)">
    <path
       id="path0"
       d="m 86.149,71.997 c -1.407,0.156 -3.026,0.637 -3.8,1.128 -0.742,0.47 -2.461,1.432 -3.821,2.137 -1.976,1.025 -2.616,1.603 -3.195,2.886 -0.397,0.882 -1.304,2.3 -2.015,3.151 -2.351,2.813 -2.254,1.059 -2.561,46.501 -0.302,44.754 -0.301,44.728 -1.907,47.154 l -1.05,1.586 -0.2,10.63 c -0.453,24.102 0.287,38.566 2.117,41.359 4.981,7.602 10.055,9.314 28.083,9.474 4.503,0.04 139.975,0.167 145.4,0.136 1.65,-0.009 17.67,-0.043 35.6,-0.076 37.017,-0.066 37.65,-0.103 42.2,-2.481 1.76,-0.919 3.272,-1.868 3.361,-2.109 0.088,-0.24 0.92,-1.255 1.848,-2.255 0.929,-1 1.819,-2.268 1.978,-2.818 0.159,-0.55 0.853,-2.17 1.542,-3.6 l 1.253,-2.6 -0.101,-22.788 -0.101,-22.789 -1.022,-1.067 c -1.975,-2.062 -2.072,-4.395 -2.331,-56.156 l -0.158,-31.6 -0.972,-3 C 324.56,79.444 322.677,77.206 317,73.749 L 313.8,71.8 201.2,71.763 C 139.27,71.742 87.497,71.848 86.149,71.997 m 60.304,61.122 c 1.666,0.919 3.46,2.09 3.988,2.602 0.527,0.512 1.638,1.341 2.469,1.843 3.945,2.386 5.947,12.013 3.998,19.236 -5.937,22.013 -39.108,16.17 -38.015,-6.697 0.672,-14.051 15.888,-23.427 27.56,-16.984 m 122.298,0.572 c 7.395,3.757 10.409,9.227 10.441,18.945 0.021,6.548 -5.945,14.741 -11.932,16.386 -1.243,0.341 -3.221,0.971 -4.396,1.399 -2.888,1.054 -5.26,0.997 -7.584,-0.18 -1.041,-0.528 -2.621,-1.156 -3.511,-1.396 -0.89,-0.239 -2.84,-1.382 -4.332,-2.54 -2.657,-2.061 -3.021,-2.56 -6.196,-8.505 -1.116,-2.09 -0.919,-12.715 0.275,-14.8 6.376,-11.137 16.697,-14.664 27.235,-9.309 m -44.194,0.438 c 1.625,2.177 1.238,20.058 -0.462,21.371 -0.876,0.676 -47.32,0.729 -49.25,0.056 C 172.38,154.697 172,153.155 172,144.03 c 0,-8.393 0.385,-10.54 1.966,-10.969 0.349,-0.094 11.685,-0.146 25.191,-0.116 l 24.557,0.055 0.843,1.129 M 46.4,207.059 c -2.181,0.402 -9.634,3.043 -10.363,3.672 -8.232,7.108 -9.539,14.17 -4.797,25.928 3.135,7.778 2.664,9.652 -4.421,17.575 -2.185,2.443 -4.617,6.294 -5.428,8.592 -1.276,3.617 -0.404,9.818 1.763,12.528 0.795,0.995 1.76,2.254 2.143,2.798 1.73,2.457 8.145,5.211 12.53,5.379 5.61,0.215 10.415,-2.069 12.341,-5.866 0.52,-1.026 1.344,-2.225 1.832,-2.665 0.488,-0.44 1.324,-1.662 1.858,-2.717 1.104,-2.175 6.513,-7.815 8.574,-8.938 1.865,-1.016 15.406,-1.02 19.768,-0.006 1.54,0.358 5.68,1.115 9.2,1.682 3.52,0.567 7.57,1.369 9,1.782 1.43,0.413 5.255,1.131 8.501,1.596 3.246,0.464 6.936,1.207 8.2,1.649 2.521,0.882 4.861,1.322 10.243,1.928 1.95,0.219 5.19,0.924 7.2,1.566 2.011,0.642 4.711,1.503 6,1.913 1.288,0.41 2.338,0.925 2.332,1.145 -0.015,0.514 -4.62,1.572 -10.476,2.407 -2.53,0.361 -5.41,0.907 -6.4,1.214 -0.99,0.307 -4.14,0.744 -7,0.97 -2.86,0.227 -7.27,0.758 -9.8,1.18 -16.205,2.702 -21.28,2.461 -22.421,-1.064 -3.278,-10.122 -13.165,-13.906 -22.979,-8.794 -5.059,2.635 -9.282,10.39 -8.887,16.32 0.25,3.757 2.909,9.099 5.838,11.729 1.646,1.478 0.884,5.842 -2.136,12.238 -4.993,10.574 -4.796,16.693 0.707,21.886 9.445,8.915 23.855,6.877 28.89,-4.086 1.941,-4.227 2.103,-4.835 2.602,-9.737 0.722,-7.1 2.382,-9.454 7.785,-11.037 6.893,-2.02 10.961,-3.018 14.726,-3.614 2.159,-0.342 4.599,-0.965 5.422,-1.385 1.55,-0.791 4.373,-1.379 8.853,-1.846 1.43,-0.149 3.979,-0.703 5.665,-1.232 1.685,-0.529 5.039,-1.317 7.452,-1.752 2.414,-0.434 5.535,-1.155 6.936,-1.601 1.401,-0.445 3.965,-0.996 5.699,-1.222 1.734,-0.227 5.514,-1.018 8.4,-1.759 2.886,-0.74 6.988,-1.619 9.115,-1.953 2.127,-0.334 4.413,-0.89 5.08,-1.235 0.667,-0.345 1.717,-0.628 2.333,-0.63 0.616,-0.002 4.18,-0.64 7.92,-1.42 7.718,-1.607 14.849,-2.158 17.8,-1.375 0.99,0.263 4.168,0.986 7.061,1.608 2.894,0.621 5.774,1.388 6.4,1.704 1.477,0.744 2.261,0.919 7.539,1.683 2.42,0.35 5.482,0.989 6.804,1.42 1.322,0.431 4.22,1.13 6.44,1.553 2.22,0.423 4.698,1.046 5.507,1.384 0.808,0.337 3.58,0.989 6.159,1.447 2.58,0.458 5.95,1.273 7.49,1.812 1.54,0.538 4.6,1.242 6.8,1.565 2.2,0.322 5.336,1.044 6.969,1.604 1.633,0.559 4.591,1.299 6.572,1.643 1.982,0.343 4.185,0.868 4.896,1.165 0.711,0.297 2.703,0.84 4.428,1.207 3.594,0.766 6.943,1.758 7.555,2.238 0.231,0.182 1.162,0.449 2.07,0.594 4.579,0.732 5.721,2.862 6.206,11.571 0.658,11.832 2.357,15.165 9.448,18.532 3.595,1.708 9.693,2.283 11.656,1.101 0.55,-0.331 2.08,-1.16 3.4,-1.841 7.164,-3.699 9.004,-11.665 5.015,-21.717 -2.676,-6.743 -2.393,-11.382 0.863,-14.182 0.593,-0.51 1.465,-1.554 1.938,-2.32 0.474,-0.766 1.418,-1.681 2.099,-2.033 2.356,-1.218 5.418,-4.514 6.243,-6.72 1.875,-5.01 1.18,-15.478 -1.228,-18.508 -0.622,-0.782 -1.13,-1.593 -1.13,-1.802 0,-0.695 -4.978,-5.581 -6.457,-6.337 -1.377,-0.705 -2.544,-0.822 -8.743,-0.876 -4.714,-0.042 -12.335,5.629 -13.847,10.303 -2.1,6.493 -7.11,10.822 -10.827,9.356 -0.619,-0.244 -4.546,-0.784 -8.726,-1.199 -4.18,-0.415 -10.21,-1.28 -13.4,-1.923 -3.19,-0.642 -8.32,-1.467 -11.4,-1.833 -3.08,-0.365 -6.59,-1.03 -7.8,-1.476 -1.21,-0.446 -3.58,-1.305 -5.266,-1.91 l -3.066,-1.1 3.066,-0.68 c 1.686,-0.374 4.416,-0.918 6.066,-1.208 1.65,-0.29 4.62,-0.981 6.6,-1.536 1.98,-0.555 5.58,-1.227 8,-1.492 2.42,-0.265 5.633,-0.909 7.14,-1.43 1.506,-0.521 4.656,-1.231 7,-1.577 4.885,-0.721 8.978,-1.613 10.062,-2.193 0.41,-0.22 2.43,-0.574 4.487,-0.787 2.057,-0.214 5.353,-0.859 7.325,-1.433 1.972,-0.575 5.206,-1.233 7.186,-1.462 1.98,-0.229 4.59,-0.674 5.8,-0.99 11.162,-2.912 16.174,-1.68 19.44,4.778 0.36,0.712 1.056,1.835 1.547,2.495 0.49,0.66 1.127,1.92 1.414,2.8 1.014,3.11 3.965,5.815 7.699,7.061 8.102,2.702 12.506,1.852 18.332,-3.539 3.473,-3.213 4.197,-15.124 1.15,-18.922 -0.441,-0.55 -1.293,-1.698 -1.892,-2.551 -0.6,-0.852 -1.922,-2.472 -2.938,-3.6 -3.711,-4.115 -4.635,-9.464 -2.233,-12.932 1.554,-2.243 3.133,-10.125 2.678,-13.371 -1.275,-9.102 -11.253,-13.999 -23.472,-11.52 -4.906,0.995 -8.444,6.007 -12.232,17.328 -1.968,5.881 -7.118,10.544 -12.252,11.095 -1.605,0.172 -3.436,0.696 -4.669,1.336 -1.368,0.711 -3.6,1.306 -6.865,1.83 -2.661,0.427 -6.248,1.22 -7.972,1.761 -1.724,0.542 -4.354,1.178 -5.843,1.414 -1.489,0.235 -3.614,0.785 -4.722,1.222 -1.108,0.436 -3.759,1.073 -5.892,1.415 -2.133,0.342 -5.768,1.136 -8.078,1.765 -2.31,0.629 -6.63,1.622 -9.6,2.208 -2.97,0.586 -7.11,1.402 -9.2,1.815 -2.09,0.413 -4.52,0.762 -5.4,0.777 -0.88,0.014 -2.41,0.403 -3.4,0.863 -0.99,0.461 -4.397,1.272 -7.571,1.801 -3.174,0.53 -7.134,1.303 -8.8,1.719 -1.666,0.416 -5.009,1.051 -7.429,1.411 -3.989,0.593 -7.484,1.284 -14.4,2.848 -1.32,0.299 -4.29,0.748 -6.6,0.999 -2.332,0.253 -4.823,0.769 -5.6,1.16 -1.593,0.8 -2.32,0.737 -10.4,-0.899 -2.75,-0.558 -6.35,-1.22 -8,-1.472 -1.65,-0.252 -4.17,-0.799 -5.6,-1.215 -1.43,-0.417 -4.315,-0.943 -6.412,-1.17 -2.096,-0.227 -5.172,-0.857 -6.836,-1.4 -1.663,-0.543 -4.988,-1.202 -7.388,-1.464 -2.4,-0.263 -4.97,-0.724 -5.711,-1.024 -2.025,-0.823 -7.815,-2.082 -11.708,-2.547 -1.901,-0.228 -4.331,-0.683 -5.4,-1.012 -2.221,-0.684 -6.409,-1.582 -10.003,-2.146 -1.353,-0.213 -3.297,-0.768 -4.321,-1.235 -1.043,-0.475 -4.098,-1.172 -6.942,-1.584 -2.793,-0.404 -6.609,-1.189 -8.479,-1.744 -3.194,-0.947 -5.204,-1.477 -13.3,-3.509 -1.815,-0.456 -4.65,-1.276 -6.3,-1.824 -1.65,-0.548 -4.036,-1.253 -5.301,-1.568 -6.421,-1.595 -10.243,-5.029 -12.215,-10.977 -0.547,-1.652 -1.132,-3.183 -1.299,-3.403 -0.166,-0.22 -0.518,-1.84 -0.781,-3.6 -0.877,-5.865 -1.823,-8.101 -4.57,-10.8 -3.783,-3.717 -9.09,-6.121 -12.234,-5.541 m 188.051,5.906 c 7.337,3.074 4.393,16.111 -3.347,14.823 -8.896,-1.479 -9.142,-13.709 -0.304,-15.119 1.888,-0.302 2.305,-0.268 3.651,0.296 m -62.662,2.039 c 3.295,3.785 3.217,6.805 -0.263,10.3 -4.951,4.972 -11.374,2.852 -12.148,-4.009 -0.628,-5.566 2.148,-8.664 7.548,-8.425 l 3.127,0.138 1.736,1.996 m 94.237,4.022 c 3.116,3.042 2.792,9.394 -0.61,11.989 -2.919,2.226 -10.031,0.417 -11.459,-2.916 -3.459,-8.068 5.897,-15.101 12.069,-9.073 m -124.852,-1.039 c 4.391,2.24 4.345,11.218 -0.067,13.221 -7.127,3.234 -13.247,-3.666 -9.718,-10.959 1.375,-2.842 6.38,-4 9.785,-2.262"
       stroke="none"
       fill="#f7f9fa"
       fill-rule="evenodd" />
  </g>
</svg>
