<!--?xml version="1.0"?-->
<svg xmlns:rdf="http://www.w3.org/1999/02/22-rdf-syntax-ns#" xmlns="http://www.w3.org/2000/svg" xmlns:svg="http://www.w3.org/2000/svg" xml:space="preserve" viewBox="0 0 8.5 11" version="1.0" fill="#fff"><path d="m8.0897 5.7083c0.1328 0.2954-0.1005 0.3713-0.0769 0.5432 0.023 0.1677 0.3772 0.3156 0.2276 0.6433-0.1355 0.2969-0.5792 0.2402-0.6475 0.0036-0.0409-0.1416-0.1647-0.3017-0.3083-0.2797-0.3622 0.0698-4.3863 0.8937-5.3847 1.1486-0.1957 0.0535-0.0382 0.4464-0.2855 0.6183-0.2436 0.1693-0.62046 0.0185-0.65744-0.2364-0.03684-0.2539 0.20724-0.3736 0.16674-0.5322-0.0354-0.1385-0.17006-0.1769-0.16775-0.3364 0.00368-0.25 0.16225-0.4136 0.42555-0.4226 0.3195-0.011 0.2653 0.2481 0.3328 0.3124 0.1392 0.125 5.2506-0.8695 5.4549-1.0279 0.2169-0.1682 0.1671-0.4699 0.2888-0.549 0.1866-0.1213 0.5406-0.0878 0.6317 0.1148z"></path><path d="m6.5856 7.2294c0.2489 0.0112 0.1271-0.2661 0.3726-0.4139 0.2496-0.1502 0.4549 0.0185 0.4986 0.0775 0.1158 0.1568 0.1367 0.4406 0.0501 0.5546-0.0865 0.114-0.255 0.1578-0.2957 0.2772-0.0452 0.1326 0.2392 0.4297 0.0465 0.6671-0.1391 0.1715-0.457 0.1761-0.6078-0.032-0.1297-0.1791 0.0604-0.5183-0.183-0.5777-0.222-0.0542-3.8102-0.9341-5.1483-1.1189-0.2537-0.0367-0.37891 0.2396-0.46119 0.3739-0.15747 0.257-0.63798 0.1211-0.67383-0.1918-0.03654-0.3189 0.27033-0.4004 0.30226-0.5679 0.01867-0.098-0.22051-0.3409-0.09755-0.6007 0.12142-0.2566 0.45034-0.3222 0.61811-0.1839 0.2138 0.1762 0.0992 0.4444 0.2829 0.634 0.2114 0.2182 5.0234 1.0903 5.2963 1.1025z"></path><path d="m1.7463 2.3421c-0.2362 0-0.4273 0.1899-0.4273 0.4261v1.8716l-0.0794 0.0945v0.957c0 0.2427 0.1961 0.4389 0.4388 0.4389h5.1229c0.2427 0 0.4377-0.1962 0.4377-0.4389v-0.957l-0.0795-0.0945v-1.8716c0-0.2362-0.1899-0.4261-0.4262-0.4261h-4.987zm1.1149 1.3521c0.2518 0 0.4561 0.2044 0.4561 0.4561 0 0.2518-0.2043 0.4561-0.4561 0.4561-0.2517 0-0.4561-0.2043-0.4561-0.4561 0-0.2517 0.2044-0.4561 0.4561-0.4561zm2.7561 0c0.2518 0 0.4561 0.2044 0.4561 0.4561 0 0.2518-0.2043 0.4561-0.4561 0.4561-0.2517 0-0.4561-0.2043-0.4561-0.4561 0-0.2517 0.2044-0.4561 0.4561-0.4561zm-1.981 0.0311h1.2059v0.5344h-1.2059v-0.5344zm-0.137 1.8129c0.1007 0 0.1831 0.0824 0.1831 0.1831s-0.0824 0.182-0.1831 0.182-0.182-0.0813-0.182-0.182 0.0813-0.1831 0.182-0.1831zm1.4799 0c0.1007 0 0.182 0.0824 0.182 0.1831s-0.0813 0.182-0.182 0.182c-0.1006 0-0.1831-0.0813-0.1831-0.182s0.0825-0.1831 0.1831-0.1831zm-2.1445 0.0979c0.1007 0 0.1831 0.0824 0.1831 0.1831s-0.0824 0.182-0.1831 0.182-0.182-0.0813-0.182-0.182 0.0813-0.1831 0.182-0.1831zm2.8091 0c0.1007 0 0.182 0.0824 0.182 0.1831s-0.0813 0.182-0.182 0.182-0.1831-0.0813-0.1831-0.182 0.0824-0.1831 0.1831-0.1831z"></path></svg>